<?xml version="1.0"?><svg fill="currentColor" id="a" xmlns="http://www.w3.org/2000/svg" viewBox="0 0 379.937 376.165"><defs></defs><path fill="currentColor" d="M192.634,0c1.634.354,3.347.504,4.889,1.099,6.852,2.643,13.764,5.172,20.458,8.178,40.273,18.085,80.502,36.27,120.711,54.497,2.939,1.332,5.817,2.995,8.354,4.976,4.61,3.599,5.329,8.23,2.115,13.108-1.632,2.476-3.589,4.845-5.795,6.821-38.652,34.619-77.36,69.175-116.067,103.732-11.816,10.549-23.672,21.053-35.487,31.603-1.797,1.605-3.45,3.37-5.202,5.027-7.761,7.339-15.217,8.712-25.078,4.195-12.371-5.666-24.606-11.625-36.94-17.372-29.216-13.615-58.437-27.22-87.706-40.721-4.111-1.896-8.503-3.187-12.87-4.796-.118.494-.245.738-.221.967,1.482,14.107,2.744,28.243,4.568,42.306.919,7.082,5.625,11.97,11.867,15.075,21.226,10.556,42.469,21.082,63.82,31.382,22.225,10.722,44.595,21.143,66.865,31.772,2.668,1.273,5.201,1.383,7.922.499,4.031-1.308,7.626-3.338,10.715-6.246,30.61-28.818,61.23-57.625,91.827-86.456,28.083-26.462,56.142-52.95,84.214-79.424.612-.577,1.251-1.125,1.864-1.675,5.887,4.084,8.915,11.987,6.257,17.41-1.284,2.621-3.264,5.051-5.388,7.091-22.704,21.81-45.525,43.499-68.265,65.272-27.261,26.101-54.482,52.242-81.704,78.384-8.322,7.991-16.608,16.02-24.874,24.068-6.265,6.099-13.563,7.738-21.568,4.395-8.885-3.711-17.595-7.85-26.319-11.935-34.142-15.986-68.253-32.039-102.397-48.021-3.407-1.595-6.963-2.872-10.858-4.463-.5,3.457-1.103,6.639-1.4,9.849-1.175,12.703,4.373,21.823,15.448,27.597,8.078,4.212,16.398,7.961,24.599,11.938,30.291,14.692,60.581,29.387,90.863,44.097,3.573,1.736,7.078,3.611,10.648,5.353,7.53,3.674,14.394,2.702,20.498-3.091,8.889-8.435,17.756-16.893,26.644-25.329,19.665-18.667,39.311-37.354,59.012-55.984,21.926-20.734,43.904-41.413,65.862-62.114,5.216-4.918,10.486-9.78,15.637-14.764,2.054-1.987,3.846-4.243,5.769-6.366,3.988-4.404,7.688-4.29,11.383.341,3.127,3.919,3.673,9.147.531,13.642-2.581,3.692-5.858,6.957-9.128,10.099-15.885,15.266-31.877,30.42-47.818,45.626-16.743,15.971-33.482,31.947-50.206,47.939-13.898,13.29-27.774,26.602-41.653,39.912-11.008,10.557-21.974,21.159-33.023,31.673-5.904,5.618-12.051,6.436-19.978,2.763-12.643-5.858-25.261-11.769-37.878-17.681-35.851-16.797-71.708-33.58-107.535-50.426-9.241-4.345-16.989-10.41-21.543-19.875-2.7-5.612-3.73-11.58-4.036-17.759-.768-15.475-1.656-30.944-2.508-46.414-.713-12.937-1.481-25.871-2.147-38.81-.247-4.811-.433-9.635-.369-14.449.172-12.865,5.063-23.971,13.975-32.993,6.158-6.234,13.119-11.7,19.902-17.291,35.469-29.236,71.008-58.387,106.494-87.603,8.355-6.879,16.596-13.895,24.892-20.846,5.849-4.901,12.304-8.521,20.034-9.446.233-.028.447-.222.669-.339C188.197,0,190.416,0,192.634,0Z"></path></svg>